<?xml version="1.0" encoding="UTF-8" standalone="no"?>
<svg
   xmlns:dc="http://purl.org/dc/elements/1.1/"
   xmlns:cc="http://creativecommons.org/ns#"
   xmlns:rdf="http://www.w3.org/1999/02/22-rdf-syntax-ns#"
   xmlns:svg="http://www.w3.org/2000/svg"
   xmlns="http://www.w3.org/2000/svg"
   id="svg8"
   version="1.1"
   viewBox="0 0 135.41972 134.03229"
   height="506.5787"
   width="511.8226">
  <title
     id="title815">Punchline icon</title>
  <defs
     id="defs2" />
  <metadata
     id="metadata5">
    <rdf:RDF>
      <cc:Work
         rdf:about="">
        <dc:format>image/svg+xml</dc:format>
        <dc:type
           rdf:resource="http://purl.org/dc/dcmitype/StillImage" />
        <dc:title>Punchline icon</dc:title>
      </cc:Work>
    </rdf:RDF>
  </metadata>
  <g
     transform="translate(-0.81451913,-161.21932)"
     id="layer1">
    <text
       id="text872"
       y="187.67004"
       x="-96.175262"
       style="font-style:normal;font-weight:normal;font-size:10.58333302px;line-height:1.25;font-family:sans-serif;letter-spacing:0px;word-spacing:0px;fill:#000000;fill-opacity:1;stroke:none;stroke-width:0.26458332"
       xml:space="preserve"><tspan
         style="stroke-width:0.26458332"
         y="197.32555"
         x="-96.175262"
         id="tspan870" /></text>
    <ellipse
       ry="54.283421"
       rx="58.096832"
       cy="227.67171"
       cx="69.022438"
       id="path890"
       style="fill:#ff6600;stroke:#333333;stroke-width:8.98114967;stroke-miterlimit:4;stroke-dasharray:none;stroke-dashoffset:0;stroke-opacity:1" />
    <g
       id="text888"
       style="font-style:normal;font-variant:normal;font-weight:normal;font-stretch:normal;font-size:121.08840942px;line-height:1.25;font-family:'Snap ITC';-inkscape-font-specification:'Snap ITC';letter-spacing:0px;word-spacing:0px;fill:#ffffff;fill-opacity:1;stroke:#333333;stroke-width:8;stroke-miterlimit:4;stroke-dasharray:none"
       transform="matrix(0.64562743,-0.13317058,0.14555961,0.59067607,-36.548034,128.97071)"
       aria-label="P">
      <path
         id="path892"
         style="font-style:normal;font-variant:normal;font-weight:normal;font-stretch:normal;font-size:121.08840942px;font-family:'Snap ITC';-inkscape-font-specification:'Snap ITC';fill:#ffffff;stroke:#333333;stroke-width:8;stroke-miterlimit:4;stroke-dasharray:none"
         d="m 97.881958,197.06056 c -3.872835,5.80723 -13.008168,10.28081 -13.008168,10.28081 -6.696027,-4.25253 -9.233096,-10.60352 -9.233096,-10.60352 0,0 3.109688,-7.07162 6.242057,-8.88541 2.482097,-1.43724 5.949815,-1.95457 8.568682,-0.78494 3.79013,1.69273 7.430525,9.99306 7.430525,9.99306 z M 208.77419,106.09967 c -20.42377,0.007 -128.90369,68.91181 -128.90369,68.91181 -4.250014,0.53221 -7.370846,0.95593 -9.362491,1.27114 -1.991635,0.3152 -9.581931,-19.10219 -29.976157,-14.37883 -20.394236,4.72335 -16.317877,0.75993 -14.980117,14.41519 1.33776,13.65526 3.136409,32.34934 3.935386,43.2559 1.118216,15.26448 9.017048,63.43901 16.305704,67.97474 7.288657,4.53575 26.880765,-20.53523 36.268309,-29.8625 3.886658,-3.86169 -33.826222,-16.48115 -25.484105,-33.33728 5.844294,-10.79054 11.703955,5.40315 18.840958,7.11901 7.137003,1.71585 27.574163,-12.38906 34.909323,-8.62296 9.23254,4.74028 -9.61973,17.51659 -8.94325,26.96088 0.7665,10.70107 1.73222,19.06958 4.34123,28.22352 6.04122,21.19613 52.16627,26.50347 60.91599,14.77886 12.07654,-16.18257 -6.62768,-76.22661 -14.72926,-90.45357 -8.10158,-14.22697 -20.1336,-21.25221 -20.1336,-21.25221 -0.53353,-16.84412 71.64015,-18.89871 94.18338,-38.11912 22.54323,-19.22041 -6.97572,-36.88832 -17.18761,-36.88458 z" />
    </g>
  </g>
</svg>
