<?xml version="1.0" encoding="UTF-8" standalone="no"?>
<svg
   xmlns:dc="http://purl.org/dc/elements/1.1/"
   xmlns:cc="http://creativecommons.org/ns#"
   xmlns:rdf="http://www.w3.org/1999/02/22-rdf-syntax-ns#"
   xmlns:svg="http://www.w3.org/2000/svg"
   xmlns="http://www.w3.org/2000/svg"
   id="svg8"
   version="1.1"
   viewBox="0 0 135.46666 135.46668"
   height="512"
   width="512">
  <title
     id="title815">Punchline icon</title>
  <defs
     id="defs2" />
  <metadata
     id="metadata5">
    <rdf:RDF>
      <cc:Work
         rdf:about="">
        <dc:format>image/svg+xml</dc:format>
        <dc:type
           rdf:resource="http://purl.org/dc/dcmitype/StillImage" />
        <dc:title>Punchline icon</dc:title>
      </cc:Work>
    </rdf:RDF>
  </metadata>
  <g
     transform="translate(43.495876,-510.29778)"
     id="layer1">
    <rect
       y="510.29779"
       x="-43.495876"
       height="135.46666"
       width="135.46666"
       id="rect837"
       style="fill:#ff6600;fill-opacity:1;stroke:none;stroke-width:1.58749998;stroke-miterlimit:4;stroke-dasharray:none;stroke-dashoffset:0;stroke-opacity:1" />
    <text
       id="text872"
       y="192.98524"
       x="-95.574165"
       style="font-style:normal;font-weight:normal;font-size:10.46074677px;line-height:1.25;font-family:sans-serif;letter-spacing:0px;word-spacing:0px;fill:#000000;fill-opacity:1;stroke:none;stroke-width:0.26151866"
       xml:space="preserve"><tspan
         style="stroke-width:0.26151866"
         y="202.5289"
         x="-95.574165"
         id="tspan870" /></text>
    <g
       id="text835"
       style="font-style:normal;font-variant:normal;font-weight:normal;font-stretch:normal;font-size:139.05761719px;line-height:1.25;font-family:'Snap ITC';-inkscape-font-specification:'Snap ITC';letter-spacing:0px;word-spacing:0px;fill:#ffffff;fill-opacity:1;stroke:#333333;stroke-width:7;stroke-miterlimit:4;stroke-dasharray:none;stroke-opacity:1"
       aria-label="p">
      <path
         id="path839"
         style="font-size:139.05761719px;fill:#ffffff;stroke:#333333;stroke-width:7;stroke-miterlimit:4;stroke-dasharray:none;stroke-opacity:1"
         d="m 11.853861,563.68791 q 1.629581,2.03698 3.53076,2.98757 1.969077,0.88269 4.685046,0.88269 5.29614,0 8.759001,-4.00605 3.46286,-4.07396 3.46286,-10.32069 0,-2.78387 -0.88269,-5.09244 -0.81479,-2.30857 -2.58017,-4.48135 -6.654125,4.27765 -10.931776,9.3022 -4.209752,5.02454 -6.043031,10.72807 z m -7.2652174,23.35734 10.8638764,37.07298 9.437992,4.34555 -41.28273,2.91966 6.110931,-6.99362 3.3270619,-89.35538 -9.3021939,-4.34555 33.949613,-3.32706 -7.672612,16.9748 q 6.654124,-8.4195 14.258837,-12.69715 7.672613,-4.27765 16.092117,-4.27765 11.882365,0 19.826575,9.23429 7.944209,9.2343 7.944209,23.15364 0,9.57379 -3.259163,17.99329 -3.191263,8.35161 -9.098496,14.39464 -4.549248,4.68505 -10.320683,7.12942 -5.703535,2.37647 -12.221861,2.37647 -8.080008,0 -14.93783,-3.46286 -6.789922,-3.53076 -13.7156434,-11.13547 z" />
    </g>
  </g>
</svg>
